<mxfile host="app.diagrams.net" modified="2023-05-13T06:06:05.306Z" agent="Mozilla/5.0 (X11; Linux x86_64) AppleWebKit/537.36 (KHTML, like Gecko) Chrome/102.0.0.0 Safari/537.36" etag="K-mLMzQLiBLT4SOD9EUg" version="21.3.0" type="device">
  <diagram name="ページ1" id="nOdVQ5zzgJzT3CVmCZAM">
    <mxGraphModel dx="981" dy="518" grid="1" gridSize="10" guides="1" tooltips="1" connect="1" arrows="1" fold="1" page="1" pageScale="1" pageWidth="1654" pageHeight="1169" math="0" shadow="0">
      <root>
        <mxCell id="0" />
        <mxCell id="1" parent="0" />
        <mxCell id="zA8v1eERBIDaVdN3cnyU-3" style="edgeStyle=orthogonalEdgeStyle;rounded=0;orthogonalLoop=1;jettySize=auto;html=1;exitX=1;exitY=0.5;exitDx=0;exitDy=0;" parent="1" source="zA8v1eERBIDaVdN3cnyU-1" target="zA8v1eERBIDaVdN3cnyU-2" edge="1">
          <mxGeometry relative="1" as="geometry" />
        </mxCell>
        <mxCell id="zA8v1eERBIDaVdN3cnyU-1" value="" style="rounded=0;whiteSpace=wrap;html=1;" parent="1" vertex="1">
          <mxGeometry x="200" y="140" width="120" height="60" as="geometry" />
        </mxCell>
        <mxCell id="zA8v1eERBIDaVdN3cnyU-2" value="" style="rounded=0;whiteSpace=wrap;html=1;" parent="1" vertex="1">
          <mxGeometry x="530" y="140" width="120" height="60" as="geometry" />
        </mxCell>
        <mxCell id="zA8v1eERBIDaVdN3cnyU-4" style="edgeStyle=orthogonalEdgeStyle;rounded=0;orthogonalLoop=1;jettySize=auto;html=1;exitX=1;exitY=0.5;exitDx=0;exitDy=0;" parent="1" source="zA8v1eERBIDaVdN3cnyU-5" target="zA8v1eERBIDaVdN3cnyU-6" edge="1">
          <mxGeometry relative="1" as="geometry" />
        </mxCell>
        <mxCell id="zA8v1eERBIDaVdN3cnyU-5" value="" style="rounded=0;whiteSpace=wrap;html=1;" parent="1" vertex="1">
          <mxGeometry x="200" y="294" width="120" height="60" as="geometry" />
        </mxCell>
        <mxCell id="zA8v1eERBIDaVdN3cnyU-6" value="" style="rounded=0;whiteSpace=wrap;html=1;" parent="1" vertex="1">
          <mxGeometry x="530" y="385" width="120" height="60" as="geometry" />
        </mxCell>
        <mxCell id="8yL7KgtqN7JmwxklQrJf-1" style="rounded=0;orthogonalLoop=1;jettySize=auto;html=1;exitX=1;exitY=0.5;exitDx=0;exitDy=0;" edge="1" parent="1" source="8yL7KgtqN7JmwxklQrJf-2" target="8yL7KgtqN7JmwxklQrJf-3">
          <mxGeometry relative="1" as="geometry" />
        </mxCell>
        <mxCell id="8yL7KgtqN7JmwxklQrJf-2" value="" style="rounded=0;whiteSpace=wrap;html=1;" vertex="1" parent="1">
          <mxGeometry x="200" y="480" width="120" height="60" as="geometry" />
        </mxCell>
        <mxCell id="8yL7KgtqN7JmwxklQrJf-3" value="" style="rounded=0;whiteSpace=wrap;html=1;" vertex="1" parent="1">
          <mxGeometry x="528" y="571" width="120" height="60" as="geometry" />
        </mxCell>
        <mxCell id="8yL7KgtqN7JmwxklQrJf-4" style="rounded=0;orthogonalLoop=1;jettySize=auto;html=1;exitX=1;exitY=0.5;exitDx=0;exitDy=0;edgeStyle=orthogonalEdgeStyle;curved=1;" edge="1" parent="1" source="8yL7KgtqN7JmwxklQrJf-5" target="8yL7KgtqN7JmwxklQrJf-6">
          <mxGeometry relative="1" as="geometry" />
        </mxCell>
        <mxCell id="8yL7KgtqN7JmwxklQrJf-5" value="" style="rounded=0;whiteSpace=wrap;html=1;" vertex="1" parent="1">
          <mxGeometry x="202" y="650" width="120" height="60" as="geometry" />
        </mxCell>
        <mxCell id="8yL7KgtqN7JmwxklQrJf-6" value="" style="rounded=0;whiteSpace=wrap;html=1;" vertex="1" parent="1">
          <mxGeometry x="530" y="741" width="120" height="60" as="geometry" />
        </mxCell>
        <mxCell id="8yL7KgtqN7JmwxklQrJf-7" style="rounded=0;orthogonalLoop=1;jettySize=auto;html=1;exitX=1;exitY=0.5;exitDx=0;exitDy=0;edgeStyle=elbowEdgeStyle;" edge="1" parent="1" source="8yL7KgtqN7JmwxklQrJf-8" target="8yL7KgtqN7JmwxklQrJf-9">
          <mxGeometry relative="1" as="geometry" />
        </mxCell>
        <mxCell id="8yL7KgtqN7JmwxklQrJf-8" value="" style="rounded=0;whiteSpace=wrap;html=1;" vertex="1" parent="1">
          <mxGeometry x="200" y="801" width="120" height="60" as="geometry" />
        </mxCell>
        <mxCell id="8yL7KgtqN7JmwxklQrJf-9" value="" style="rounded=0;whiteSpace=wrap;html=1;" vertex="1" parent="1">
          <mxGeometry x="528" y="892" width="120" height="60" as="geometry" />
        </mxCell>
        <mxCell id="8yL7KgtqN7JmwxklQrJf-10" style="rounded=0;orthogonalLoop=1;jettySize=auto;html=1;exitX=1;exitY=0.5;exitDx=0;exitDy=0;edgeStyle=elbowEdgeStyle;elbow=vertical;" edge="1" parent="1" source="8yL7KgtqN7JmwxklQrJf-11" target="8yL7KgtqN7JmwxklQrJf-12">
          <mxGeometry relative="1" as="geometry">
            <Array as="points">
              <mxPoint x="450" y="1040" />
            </Array>
          </mxGeometry>
        </mxCell>
        <mxCell id="8yL7KgtqN7JmwxklQrJf-11" value="" style="rounded=0;whiteSpace=wrap;html=1;" vertex="1" parent="1">
          <mxGeometry x="202" y="970" width="120" height="60" as="geometry" />
        </mxCell>
        <mxCell id="8yL7KgtqN7JmwxklQrJf-12" value="" style="rounded=0;whiteSpace=wrap;html=1;" vertex="1" parent="1">
          <mxGeometry x="530" y="1061" width="120" height="60" as="geometry" />
        </mxCell>
      </root>
    </mxGraphModel>
  </diagram>
</mxfile>
